<svg xmlns="http://www.w3.org/2000/svg" version="1.1" xmlns:xlink="http://www.w3.org/1999/xlink" xmlns:svgjs="http://svgjs.dev/svgjs" width="1000" height="386" viewBox="0 0 1000 386"><g transform="matrix(1,0,0,1,-0.6056348047761162,0.4651350288390006)"><svg viewBox="0 0 396 153" data-background-color="#ffffff" preserveAspectRatio="xMidYMid meet" height="386" width="1000" xmlns="http://www.w3.org/2000/svg" xmlns:xlink="http://www.w3.org/1999/xlink"><g id="tight-bounds" transform="matrix(1,0,0,1,0.24008861730862918,-0.1840546684828155)"><svg viewBox="0 0 395.52 153.36842166177905" height="153.36842166177905" width="395.52"><g><svg viewBox="0 0 395.52 153.36842166177905" height="153.36842166177905" width="395.52"><g><svg viewBox="0 0 395.52 153.36842166177905" height="153.36842166177905" width="395.52"><g id="textblocktransform"><svg viewBox="0 0 395.52 153.36842166177905" height="153.36842166177905" width="395.52" id="textblock"><g><svg viewBox="0 0 395.52 153.36842166177905" height="153.36842166177905" width="395.52"><path d="M394.594 32.895C392.735 16.975 387.435 12.549 387.435 12.549 371.165-3.848 350.86-0.314 332.619 2.042 300.414 2.138 268.339 5.64 236.208 7.519 168.767 7.805 100.749 3.093 33.643 14.714 27.339 18.28-6.54 15.415 1.121 34.932 3.129 43.051 10.456 52.062 10.232 59.512 11.236 60.818 12.631 57.825 13.226 59.703 15.309 64.766 18.711 62.378 21.501 65.371 17.614 73.362 20.403 80.017 23.062 86.989 18.377 88.804 12.371 87.945 9.675 93.962 9.396 98.324 7.89 97.496 6.235 97.305 5.026 97.178 2.59 97.655 2.999 99.025 4.394 103.705-1.594 106.411 2.162 110.996-0.422 115.963 3.948 120.261 3.353 125.642 3.278 126.725 3.687 127.648 4.338 127.903 7.22 129.272 3.018 131.946 3.464 134.844 33.029 154.648 65.104 140.957 95.394 150.063 103.259 143.695 97.346 152.323 100.489 150.986 102.943 149.426 104.728 155.889 107.499 152.228 107.927 151.177 107.276 148.694 108.8 149.171 109.6 149.426 110.307 149.362 110.418 147.898 110.586 145.701 109.117 147.07 108.726 145.924 112.947 140.129 111.906 153.915 115.866 153.342 115.68 151.655 114.528 149.235 116.889 149.553 119.232 147.134 119.306 145.128 121.389 150.572 121.463 151.75 121.835 152.578 122.43 153.151 128.938 147.229 135.409 155.253 142.233 152.578 146.417 149.649 150.433 154.17 154.672 153.056 156.16 152.164 157.666 150.572 159.098 153.247 176.632 153.82 195.319 151.432 211.943 153.342 256.364 149.776 303.836 154.807 350.674 150.095 361.719 148.28 373.192 145.701 383.958 143.631 383.958 143.631 392.679 137.964 392.679 112.493S394.538 90.205 394.817 69.924C395.096 49.642 396.398 48.814 394.538 32.895Z" opacity="1" fill="#0891b2" data-fill-palette-color="tertiary"></path><g transform="matrix(1,0,0,1,55.76832,26.230666666666668)"><svg width="283.98335999999995" viewBox="0.25 -35.5 102.29 36.35" height="100.90708832844572" data-palette-color="#ffffff"><path d="M13.1-35.5Q16.6-35.5 19.28-34.38 21.95-33.25 24.15-31.05L24.15-31.05 20.5-26.85Q17.25-29.65 13.85-29.65L13.85-29.65Q11.95-29.65 10.85-28.7 9.75-27.75 9.75-26.1L9.75-26.1Q9.75-25 10.25-24.25 10.75-23.5 12-22.8 13.25-22.1 15.7-21.2L15.7-21.2Q18.9-20 20.88-18.63 22.85-17.25 23.9-15.2 24.95-13.15 24.95-10.1L24.95-10.1Q24.95-6.9 23.43-4.42 21.9-1.95 19.03-0.55 16.15 0.85 12.3 0.85L12.3 0.85Q5.05 0.85 0.25-4.05L0.25-4.05 4.15-8.4Q6-6.8 7.88-5.95 9.75-5.1 11.85-5.1L11.85-5.1Q14.15-5.1 15.4-6.3 16.65-7.5 16.65-9.5L16.65-9.5Q16.65-11.4 15.5-12.55 14.35-13.7 11.15-14.85L11.15-14.85Q5.95-16.8 3.75-19.25 1.55-21.7 1.55-25.5L1.55-25.5Q1.55-28.45 3.05-30.73 4.55-33 7.18-34.25 9.8-35.5 13.1-35.5L13.1-35.5ZM26.3-34.65L50.5-34.65 49.65-28.55 42.2-28.55 42.2 0 34.2 0 34.2-28.55 26.3-28.55 26.3-34.65ZM78.15 0L69.9 0 68.35-7.55 59.55-7.55 58 0 49.9 0 59.25-34.65 68.85-34.65 78.15 0ZM63.95-28.8L60.75-13.3 67.15-13.3 63.95-28.8ZM90.69-35.5Q94.19-35.5 96.87-34.38 99.54-33.25 101.74-31.05L101.74-31.05 98.09-26.85Q94.84-29.65 91.44-29.65L91.44-29.65Q89.54-29.65 88.44-28.7 87.34-27.75 87.34-26.1L87.34-26.1Q87.34-25 87.84-24.25 88.34-23.5 89.59-22.8 90.84-22.1 93.29-21.2L93.29-21.2Q96.49-20 98.47-18.63 100.44-17.25 101.49-15.2 102.54-13.15 102.54-10.1L102.54-10.1Q102.54-6.9 101.02-4.42 99.49-1.95 96.62-0.55 93.74 0.85 89.89 0.85L89.89 0.85Q82.64 0.85 77.84-4.05L77.84-4.05 81.74-8.4Q83.59-6.8 85.47-5.95 87.34-5.1 89.44-5.1L89.44-5.1Q91.74-5.1 92.99-6.3 94.24-7.5 94.24-9.5L94.24-9.5Q94.24-11.4 93.09-12.55 91.94-13.7 88.74-14.85L88.74-14.85Q83.54-16.8 81.34-19.25 79.14-21.7 79.14-25.5L79.14-25.5Q79.14-28.45 80.64-30.73 82.14-33 84.77-34.25 87.39-35.5 90.69-35.5L90.69-35.5Z" opacity="1" transform="matrix(1,0,0,1,0,0)" fill="#ffffff" class="undefined-text-0" data-fill-palette-color="quaternary" id="text-0"></path></svg></g></svg></g></svg></g></svg></g><g></g></svg></g><defs></defs></svg><rect width="395.52" height="153.36842166177905" fill="none" stroke="none" visibility="hidden"></rect></g></svg></g></svg>